<?xml version="1.0" standalone="no"?>
<!DOCTYPE svg PUBLIC "-//W3C//DTD SVG 20010904//EN"
 "http://www.w3.org/TR/2001/REC-SVG-20010904/DTD/svg10.dtd">
<svg version="1.0" xmlns="http://www.w3.org/2000/svg"
 width="1500.000000pt" height="1500.000000pt" viewBox="0 0 1500.000000 1500.000000"
 preserveAspectRatio="xMidYMid meet">
<metadata>
Created by potrace 1.14, written by Peter Selinger 2001-2017
</metadata>
<g transform="translate(0.000000,1500.000000) scale(0.100000,-0.100000)"
fill="#000000" stroke="none">
<path d="M4685 8685 c-55 -13 -127 -35 -159 -50 -219 -98 -378 -294 -459 -566
-23 -74 -31 -108 -52 -219 -10 -51 -19 -219 -19 -345 0 -158 10 -275 31 -375
8 -41 17 -85 19 -97 10 -51 69 -203 106 -273 120 -226 302 -363 555 -417 84
-18 299 -24 390 -11 70 11 206 54 274 88 107 55 224 165 299 283 57 90 129
280 149 392 6 33 13 74 16 90 25 141 25 490 -1 670 -20 142 -80 321 -146 438
-47 83 -46 81 -123 164 -94 102 -192 165 -321 207 -107 35 -173 44 -323 45
-109 0 -156 -5 -236 -24z m369 -422 c132 -38 233 -140 290 -291 33 -86 46
-147 61 -272 6 -54 7 -343 1 -362 -3 -7 -7 -35 -10 -63 -9 -82 -44 -205 -79
-274 -85 -171 -228 -254 -425 -245 -195 8 -348 151 -407 379 -55 215 -54 554
1 769 34 130 121 261 210 317 89 55 250 74 358 42z"/>
<path d="M6731 8695 c-212 -47 -409 -216 -489 -420 -49 -127 -49 -124 -50
-1054 l0 -871 233 0 234 0 0 855 0 855 24 54 c40 86 125 137 224 131 28 -2 65
-11 84 -20 51 -26 107 -91 120 -138 8 -30 12 -278 12 -888 l0 -846 234 -2 233
-2 0 858 0 858 24 51 c83 179 344 170 424 -15 14 -31 16 -144 17 -886 2 -467
3 -853 4 -857 0 -3 104 -6 231 -5 l230 0 -3 896 -2 896 -27 80 c-83 245 -284
425 -528 475 -73 15 -239 11 -309 -7 -79 -21 -176 -67 -237 -113 -29 -22 -56
-40 -58 -40 -3 0 -27 16 -53 36 -63 48 -148 90 -230 112 -84 24 -251 27 -342
7z"/>
<path d="M54 8680 l-29 -5 0 -230 0 -230 490 -1 c441 0 494 -2 530 -18 111
-48 165 -168 128 -289 -17 -60 -84 -128 -141 -145 -27 -8 -145 -12 -376 -12
l-336 0 0 -233 0 -233 328 0 c353 1 385 -3 448 -50 137 -105 111 -323 -46
-393 -43 -20 -66 -21 -536 -21 l-490 0 -1 -234 0 -234 521 2 c566 2 562 2 693
61 250 114 408 349 412 614 3 183 -36 297 -163 476 -7 9 2 28 26 61 93 129
133 247 137 404 1 79 -3 125 -18 184 -68 260 -294 471 -554 516 -64 11 -966
20 -1023 10z"/>
<path d="M2643 8682 l-61 -3 -93 -87 c-185 -174 -333 -402 -423 -652 -15 -41
-32 -85 -36 -97 -11 -26 -34 -122 -55 -228 -42 -213 -51 -447 -21 -590 61
-297 283 -561 566 -674 151 -60 350 -78 514 -47 282 54 537 274 645 556 159
412 16 904 -322 1108 -134 81 -265 117 -427 117 -151 0 -159 -2 -267 -56 l-93
-46 19 31 c55 94 66 112 73 121 4 6 29 39 56 75 111 152 268 306 432 423 60
44 62 47 35 48 -165 2 -493 3 -542 1z m322 -1038 c180 -44 304 -210 310 -416
3 -96 -8 -153 -45 -235 -80 -176 -268 -270 -459 -229 -274 58 -414 387 -283
666 32 68 122 161 185 189 90 41 191 50 292 25z"/>
<path d="M11192 8679 c-16 -6 -17 -86 -17 -1165 l0 -1159 233 -1 232 -2 1 62
c0 33 0 139 0 234 l1 172 221 1 c122 0 239 1 259 2 42 2 33 19 164 -288 37
-88 71 -165 76 -171 5 -8 86 -11 253 -12 l244 0 -15 36 c-9 21 -18 44 -21 52
-3 8 -11 29 -18 45 -81 184 -195 460 -195 470 0 6 21 27 47 45 102 74 209 195
267 303 47 90 93 228 104 317 7 56 6 222 -1 273 -29 186 -131 381 -274 522
-172 169 -383 257 -636 264 -196 6 -910 5 -925 0z m1008 -473 c70 -13 179 -74
234 -130 52 -52 109 -149 124 -211 4 -17 7 -75 6 -130 -1 -93 -3 -105 -37
-178 -63 -135 -195 -240 -332 -264 -27 -5 -162 -9 -300 -9 l-250 1 -2 460 c-1
252 0 462 2 465 5 8 512 4 555 -4z"/>
<path d="M13121 8680 c-4 -3 -6 -108 -6 -235 l0 -230 348 0 c191 0 348 -2 348
-5 1 -3 2 -421 3 -930 l1 -925 232 -3 233 -2 2 932 3 933 345 0 345 0 1 233
c0 160 -3 232 -10 232 -80 4 -1840 4 -1845 0z"/>
<path d="M9719 8676 c-2 -2 -25 -7 -50 -10 -60 -8 -174 -47 -252 -87 -249
-126 -412 -339 -494 -648 -4 -14 -9 -375 -10 -802 l-4 -776 226 -1 c131 0 228
4 231 10 3 5 6 110 6 233 l1 224 466 -2 466 -2 1 -220 c1 -121 2 -225 3 -231
1 -7 73 -11 231 -13 l231 -1 -3 777 c-3 764 -4 779 -25 855 -118 418 -473 693
-899 696 -67 1 -123 0 -125 -2z m263 -486 c82 -27 123 -53 189 -120 61 -62
112 -155 125 -230 4 -25 8 -160 8 -301 l1 -255 -465 0 -465 1 -1 246 c-1 136
2 271 7 300 11 62 67 182 103 220 78 83 183 143 273 155 26 3 49 7 50 8 9 9
125 -7 175 -24z"/>
</g>
</svg>
