<svg xmlns="http://www.w3.org/2000/svg" version="1.1" xmlns:xlink="http://www.w3.org/1999/xlink" xmlns:svgjs="http://svgjs.dev/svgjs" width="1500" height="1500" viewBox="0 0 1500 1500"><rect width="1500" height="1500" fill="#000000"></rect><g transform="matrix(0.6666666666666666,0,0,0.6666666666666666,249.39393939393938,669.579423153476)"><svg viewBox="0 0 396 64" data-background-color="#ffffff" preserveAspectRatio="xMidYMid meet" height="242" width="1500" xmlns="http://www.w3.org/2000/svg" xmlns:xlink="http://www.w3.org/1999/xlink"><g id="tight-bounds" transform="matrix(1,0,0,1,0.2400000000000091,-0.09762240799045685)"><svg viewBox="0 0 395.52 64.19524481598089" height="64.19524481598089" width="395.52"><g><svg viewBox="0 0 395.52 64.19524481598089" height="64.19524481598089" width="395.52"><g><svg viewBox="0 0 395.52 64.19524481598089" height="64.19524481598089" width="395.52"><g id="textblocktransform"><svg viewBox="0 0 395.52 64.19524481598089" height="64.19524481598089" width="395.52" id="textblock"><g><svg viewBox="0 0 395.52 64.19524481598089" height="64.19524481598089" width="395.52"><g transform="matrix(1,0,0,1,0,0)"><svg width="395.52" viewBox="2.44 -35.5 224.86 36.5" height="64.19524481598089" data-palette-color="#2a2c35"><path d="M26.95-10.5L26.95-10.5Q26.95-8.33 26.12-6.42 25.29-4.52 23.86-3.09 22.44-1.66 20.53-0.83 18.63 0 16.46 0L16.46 0 2.44 0 2.44-7.01 16.46-7.01Q17.19-7.01 17.82-7.28 18.46-7.54 18.93-8.02 19.41-8.5 19.68-9.13 19.95-9.77 19.95-10.5L19.95-10.5Q19.95-11.23 19.68-11.87 19.41-12.5 18.93-12.98 18.46-13.45 17.82-13.72 17.19-13.99 16.46-13.99L16.46-13.99 6.91-13.99 6.91-21 16.46-21Q17.19-21 17.82-21.26 18.46-21.53 18.93-22.01 19.41-22.49 19.68-23.13 19.95-23.78 19.95-24.51L19.95-24.51Q19.95-25.24 19.68-25.88 19.41-26.51 18.93-26.99 18.46-27.47 17.82-27.73 17.19-28 16.46-28L16.46-28 2.44-28 2.44-35.01 16.46-35.01Q18.63-35.01 20.53-34.18 22.44-33.35 23.86-31.92 25.29-30.49 26.12-28.59 26.95-26.68 26.95-24.51L26.95-24.51Q26.95-22.58 26.25-20.76 25.54-18.95 24.24-17.5L24.24-17.5Q25.54-16.06 26.25-14.25 26.95-12.43 26.95-10.5ZM58.4-12.84L58.4-12.84Q58.4-10.01 57.38-7.5 56.37-4.98 54.59-3.09 52.81-1.2 50.35-0.1 47.9 1 45.04 1L45.04 1Q42.19 1 39.66-0.1 37.13-1.2 35.25-3.09 33.37-4.98 32.29-7.5 31.2-10.01 31.2-12.84L31.2-12.84Q31.2-16.21 31.86-19.42 32.52-22.63 33.79-25.5 35.06-28.37 36.89-30.79 38.72-33.2 41.04-35.01L41.04-35.01 50.49-35.01Q49.02-34.06 47.63-32.89 46.24-31.71 44.98-30.37 43.72-29.03 42.65-27.54 41.57-26.05 40.74-24.44L40.74-24.44Q41.79-25.15 43.03-25.65 44.26-26.15 45.55-26.15L45.55-26.15Q48.51-26.15 50.89-25.16 53.27-24.17 54.93-22.4 56.59-20.63 57.49-18.19 58.4-15.75 58.4-12.84ZM51.39-12.84L51.39-12.84Q51.39-14.23 50.94-15.47 50.49-16.7 49.66-17.64 48.83-18.58 47.65-19.12 46.48-19.65 45.04-19.65L45.04-19.65Q43.6-19.65 42.43-19.12 41.26-18.58 40.44-17.64 39.62-16.7 39.18-15.47 38.74-14.23 38.74-12.84L38.74-12.84Q38.74-11.5 39.19-10.27 39.65-9.03 40.48-8.08 41.31-7.13 42.47-6.57 43.63-6.01 45.04-6.01L45.04-6.01Q46.48-6.01 47.65-6.54 48.83-7.08 49.66-8.02 50.49-8.96 50.94-10.21 51.39-11.45 51.39-12.84ZM83.49-17.5L83.49-17.5Q83.49-23.34 81.55-26.17 79.61-29 76.14-29L76.14-29Q72.7-29 70.8-26.2 68.89-23.39 68.89-17.5L68.89-17.5Q68.89-11.67 70.8-8.84 72.7-6.01 76.14-6.01L76.14-6.01Q77.88-6.01 79.24-6.7 80.61-7.4 81.55-8.81 82.49-10.23 82.99-12.39 83.49-14.55 83.49-17.5ZM90.16-17.5L90.16-17.5Q90.16-12.52 89.06-9.08 87.96-5.64 86.05-3.52 84.15-1.39 81.6-0.45 79.05 0.49 76.14 0.49L76.14 0.49Q73.24 0.49 70.69-0.48 68.13-1.44 66.24-3.58 64.35-5.71 63.25-9.14 62.15-12.57 62.15-17.5L62.15-17.5Q62.15-22.49 63.25-25.92 64.35-29.35 66.24-31.47 68.13-33.59 70.69-34.55 73.24-35.5 76.14-35.5L76.14-35.5Q79.05-35.5 81.6-34.53 84.15-33.57 86.05-31.42 87.96-29.27 89.06-25.85 90.16-22.44 90.16-17.5ZM130.19-25L130.19 0 123.21 0 123.21-25Q123.21-25.73 122.93-26.37 122.65-27 122.17-27.48 121.7-27.95 121.06-28.22 120.43-28.49 119.69-28.49L119.69-28.49Q118.96-28.49 118.33-28.22 117.69-27.95 117.22-27.48 116.74-27 116.47-26.37 116.2-25.73 116.2-25L116.2-25 116.2 0 109.2 0 109.2-25Q109.2-25.73 108.93-26.37 108.66-27 108.18-27.48 107.71-27.95 107.07-28.22 106.44-28.49 105.71-28.49L105.71-28.49Q104.97-28.49 104.34-28.22 103.7-27.95 103.23-27.48 102.75-27 102.48-26.37 102.21-25.73 102.21-25L102.21-25 102.21 0 95.21 0 95.21-25Q95.21-27.17 96.03-29.09 96.84-31.01 98.27-32.43 99.7-33.86 101.62-34.68 103.53-35.5 105.71-35.5L105.71-35.5Q107.66-35.5 109.47-34.8 111.27-34.11 112.71-32.79L112.71-32.79Q114.15-34.11 115.95-34.8 117.74-35.5 119.69-35.5L119.69-35.5Q121.87-35.5 123.78-34.68 125.7-33.86 127.13-32.43 128.56-31.01 129.37-29.09 130.19-27.17 130.19-25L130.19-25ZM143.03-13.99L157.05-13.99 157.05-21Q157.05-22.44 156.5-23.72 155.95-25 154.99-25.95 154.04-26.9 152.76-27.45 151.48-28 150.04-28L150.04-28Q148.6-28 147.32-27.45 146.03-26.9 145.08-25.95 144.13-25 143.58-23.72 143.03-22.44 143.03-21L143.03-21 143.03-13.99ZM164.05-21L164.05 0 157.05 0 157.05-7.01 143.03-7.01 143.03 0 136.05 0 136.05-21Q136.05-23.9 137.15-26.45 138.25-29 140.14-30.91 142.03-32.81 144.58-33.91 147.13-35.01 150.04-35.01L150.04-35.01Q152.94-35.01 155.5-33.91 158.05-32.81 159.95-30.91 161.86-29 162.95-26.45 164.05-23.9 164.05-21L164.05-21ZM184.14-28L177.14-28 177.14-13.99 184.14-13.99Q185.58-13.99 186.85-14.54 188.12-15.09 189.07-16.04 190.03-16.99 190.58-18.27 191.13-19.56 191.13-21L191.13-21Q191.13-22.44 190.58-23.72 190.03-25 189.07-25.95 188.12-26.9 186.85-27.45 185.58-28 184.14-28L184.14-28ZM177.14-7.01L177.14 0 170.13 0 170.13-35.01 184.14-35.01Q186.07-35.01 187.85-34.51 189.64-34.01 191.19-33.09 192.74-32.18 194.02-30.9 195.3-29.61 196.22-28.05 197.13-26.49 197.63-24.71 198.13-22.92 198.13-21L198.13-21Q198.13-19.19 197.68-17.48 197.23-15.77 196.39-14.23 195.54-12.7 194.32-11.4 193.1-10.11 191.59-9.16L191.59-9.16 195.47 0 188.02 0 184.97-7.06 177.14-7.01ZM216.81-28L216.81 0 209.82 0 209.82-28 199.3-28 199.3-35.01 227.3-35.01 227.3-28 216.81-28Z" opacity="1" transform="matrix(1,0,0,1,0,0)" fill="#ffffff" class="wordmark-text-0" data-fill-palette-color="primary" id="text-0"></path></svg></g></svg></g></svg></g></svg></g></svg></g><defs></defs></svg><rect width="395.52" height="64.19524481598089" fill="none" stroke="none" visibility="hidden"></rect></g></svg></g></svg>